<svg xmlns="http://www.w3.org/2000/svg" xmlns:xlink="http://www.w3.org/1999/xlink" width="1080" zoomAndPan="magnify" viewBox="0 0 810 809.999993" height="1080" preserveAspectRatio="xMidYMid meet" version="1.2"><g id="8166137d5d"><path style=" stroke:none;fill-rule:nonzero;fill:#ff5757;fill-opacity:1;" d="M 303.75 101.25 L 303.75 135 L 135 135 L 135 202.5 L 168.75 202.5 L 168.75 641.25 C 168.75 642.355469 168.777344 643.457031 168.832031 644.5625 C 168.886719 645.664062 168.964844 646.765625 169.074219 647.867188 C 169.183594 648.964844 169.320312 650.0625 169.480469 651.152344 C 169.644531 652.246094 169.832031 653.335938 170.046875 654.417969 C 170.261719 655.503906 170.503906 656.578125 170.773438 657.652344 C 171.042969 658.722656 171.335938 659.785156 171.65625 660.84375 C 171.976562 661.902344 172.324219 662.949219 172.695312 663.988281 C 173.066406 665.03125 173.464844 666.058594 173.886719 667.082031 C 174.3125 668.101562 174.757812 669.109375 175.230469 670.109375 C 175.703125 671.109375 176.199219 672.09375 176.71875 673.070312 C 177.242188 674.042969 177.785156 675.003906 178.351562 675.953125 C 178.921875 676.898438 179.511719 677.832031 180.125 678.75 C 180.738281 679.667969 181.375 680.574219 182.035156 681.460938 C 182.691406 682.347656 183.371094 683.21875 184.070312 684.070312 C 184.773438 684.925781 185.492188 685.761719 186.234375 686.582031 C 186.976562 687.398438 187.738281 688.199219 188.519531 688.980469 C 189.300781 689.761719 190.101562 690.523438 190.917969 691.265625 C 191.738281 692.007812 192.574219 692.726562 193.429688 693.429688 C 194.28125 694.128906 195.152344 694.808594 196.039062 695.464844 C 196.925781 696.125 197.832031 696.761719 198.75 697.375 C 199.667969 697.988281 200.601562 698.578125 201.546875 699.148438 C 202.496094 699.714844 203.457031 700.257812 204.429688 700.78125 C 205.40625 701.300781 206.390625 701.796875 207.390625 702.269531 C 208.386719 702.742188 209.398438 703.1875 210.417969 703.613281 C 211.4375 704.035156 212.46875 704.433594 213.511719 704.804688 C 214.550781 705.175781 215.597656 705.523438 216.65625 705.84375 C 217.710938 706.164062 218.777344 706.457031 219.847656 706.726562 C 220.921875 706.996094 221.996094 707.238281 223.082031 707.453125 C 224.164062 707.667969 225.253906 707.855469 226.34375 708.019531 C 227.4375 708.179688 228.535156 708.316406 229.632812 708.425781 C 230.734375 708.53125 231.835938 708.613281 232.9375 708.667969 C 234.042969 708.722656 235.144531 708.75 236.25 708.75 L 573.75 708.75 C 574.855469 708.75 575.957031 708.722656 577.0625 708.667969 C 578.164062 708.613281 579.265625 708.53125 580.367188 708.425781 C 581.464844 708.316406 582.5625 708.179688 583.652344 708.019531 C 584.746094 707.855469 585.835938 707.667969 586.917969 707.453125 C 588.003906 707.238281 589.078125 706.996094 590.152344 706.726562 C 591.222656 706.457031 592.285156 706.164062 593.34375 705.84375 C 594.402344 705.523438 595.449219 705.175781 596.488281 704.804688 C 597.53125 704.433594 598.558594 704.035156 599.582031 703.613281 C 600.601562 703.1875 601.609375 702.742188 602.609375 702.269531 C 603.609375 701.796875 604.59375 701.300781 605.570312 700.78125 C 606.542969 700.257812 607.503906 699.714844 608.453125 699.148438 C 609.398438 698.578125 610.332031 697.988281 611.25 697.375 C 612.167969 696.761719 613.074219 696.125 613.960938 695.464844 C 614.847656 694.808594 615.71875 694.128906 616.570312 693.429688 C 617.425781 692.726562 618.261719 692.007812 619.082031 691.265625 C 619.898438 690.523438 620.699219 689.761719 621.480469 688.980469 C 622.261719 688.199219 623.023438 687.398438 623.765625 686.582031 C 624.507812 685.761719 625.226562 684.925781 625.929688 684.070312 C 626.628906 683.21875 627.308594 682.347656 627.964844 681.460938 C 628.625 680.574219 629.261719 679.667969 629.875 678.75 C 630.488281 677.832031 631.078125 676.898438 631.644531 675.953125 C 632.214844 675.003906 632.757812 674.042969 633.28125 673.070312 C 633.800781 672.09375 634.296875 671.109375 634.769531 670.109375 C 635.242188 669.109375 635.6875 668.101562 636.113281 667.082031 C 636.535156 666.058594 636.933594 665.03125 637.304688 663.988281 C 637.675781 662.949219 638.023438 661.902344 638.34375 660.84375 C 638.664062 659.785156 638.957031 658.722656 639.226562 657.652344 C 639.496094 656.578125 639.738281 655.503906 639.953125 654.417969 C 640.167969 653.335938 640.355469 652.246094 640.519531 651.152344 C 640.679688 650.0625 640.816406 648.964844 640.925781 647.867188 C 641.035156 646.765625 641.113281 645.664062 641.167969 644.5625 C 641.222656 643.457031 641.25 642.355469 641.25 641.25 L 641.25 202.5 L 675 202.5 L 675 135 L 506.25 135 L 506.25 101.25 L 303.75 101.25 M 236.25 202.5 L 573.75 202.5 L 573.75 641.25 L 236.25 641.25 L 236.25 202.5 M 303.75 270 L 303.75 573.75 L 371.25 573.75 L 371.25 270 L 303.75 270 M 438.75 270 L 438.75 573.75 L 506.25 573.75 L 506.25 270 Z M 438.75 270 "/></g></svg>