<svg xmlns="http://www.w3.org/2000/svg" xmlns:xlink="http://www.w3.org/1999/xlink" width="1080" zoomAndPan="magnify" viewBox="0 0 810 809.999993" height="1080" preserveAspectRatio="xMidYMid meet" version="1.2"><g id="31168387b3"><path style=" stroke:none;fill-rule:nonzero;fill:#ffde59;fill-opacity:1;" d="M 337.5 135 L 135 135 C 97.539062 135 67.5 165.039062 67.5 202.5 L 67.5 607.5 C 67.5 608.605469 67.527344 609.707031 67.582031 610.8125 C 67.636719 611.914062 67.714844 613.015625 67.824219 614.117188 C 67.933594 615.214844 68.070312 616.3125 68.230469 617.40625 C 68.394531 618.496094 68.582031 619.585938 68.796875 620.667969 C 69.011719 621.753906 69.253906 622.828125 69.523438 623.902344 C 69.792969 624.972656 70.085938 626.035156 70.40625 627.09375 C 70.726562 628.152344 71.074219 629.199219 71.445312 630.238281 C 71.816406 631.28125 72.214844 632.308594 72.636719 633.332031 C 73.0625 634.351562 73.507812 635.359375 73.980469 636.359375 C 74.453125 637.359375 74.949219 638.34375 75.46875 639.320312 C 75.992188 640.292969 76.535156 641.253906 77.101562 642.203125 C 77.671875 643.148438 78.261719 644.082031 78.875 645 C 79.488281 645.917969 80.125 646.824219 80.785156 647.710938 C 81.441406 648.597656 82.121094 649.46875 82.820312 650.320312 C 83.523438 651.175781 84.242188 652.011719 84.984375 652.832031 C 85.726562 653.648438 86.488281 654.449219 87.269531 655.230469 C 88.050781 656.011719 88.851562 656.773438 89.667969 657.515625 C 90.488281 658.257812 91.324219 658.976562 92.179688 659.679688 C 93.03125 660.378906 93.902344 661.058594 94.789062 661.714844 C 95.675781 662.375 96.582031 663.011719 97.5 663.625 C 98.417969 664.238281 99.351562 664.828125 100.296875 665.398438 C 101.246094 665.964844 102.207031 666.507812 103.179688 667.03125 C 104.15625 667.550781 105.140625 668.046875 106.140625 668.519531 C 107.136719 668.992188 108.148438 669.4375 109.167969 669.863281 C 110.1875 670.285156 111.21875 670.683594 112.261719 671.054688 C 113.300781 671.425781 114.347656 671.773438 115.40625 672.09375 C 116.464844 672.414062 117.527344 672.707031 118.597656 672.976562 C 119.671875 673.246094 120.746094 673.488281 121.832031 673.703125 C 122.914062 673.917969 124.003906 674.105469 125.09375 674.269531 C 126.1875 674.429688 127.285156 674.566406 128.382812 674.675781 C 129.484375 674.78125 130.585938 674.863281 131.6875 674.917969 C 132.792969 674.972656 133.894531 675 135 675 L 675 675 C 676.105469 675 677.207031 674.972656 678.3125 674.917969 C 679.414062 674.863281 680.515625 674.78125 681.617188 674.675781 C 682.714844 674.566406 683.8125 674.429688 684.902344 674.269531 C 685.996094 674.105469 687.085938 673.917969 688.167969 673.703125 C 689.253906 673.488281 690.328125 673.246094 691.402344 672.976562 C 692.472656 672.707031 693.535156 672.414062 694.59375 672.09375 C 695.652344 671.773438 696.699219 671.425781 697.738281 671.054688 C 698.78125 670.683594 699.808594 670.285156 700.832031 669.863281 C 701.851562 669.4375 702.859375 668.992188 703.859375 668.519531 C 704.859375 668.046875 705.84375 667.550781 706.820312 667.03125 C 707.792969 666.507812 708.753906 665.964844 709.703125 665.398438 C 710.648438 664.828125 711.582031 664.238281 712.5 663.625 C 713.417969 663.011719 714.324219 662.375 715.210938 661.714844 C 716.097656 661.058594 716.96875 660.378906 717.820312 659.679688 C 718.675781 658.976562 719.511719 658.257812 720.332031 657.515625 C 721.148438 656.773438 721.949219 656.011719 722.730469 655.230469 C 723.511719 654.449219 724.273438 653.648438 725.015625 652.832031 C 725.757812 652.011719 726.476562 651.175781 727.179688 650.320312 C 727.878906 649.46875 728.558594 648.597656 729.214844 647.710938 C 729.875 646.824219 730.511719 645.917969 731.125 645 C 731.738281 644.082031 732.328125 643.148438 732.898438 642.203125 C 733.464844 641.253906 734.007812 640.292969 734.53125 639.320312 C 735.050781 638.34375 735.546875 637.359375 736.019531 636.359375 C 736.492188 635.359375 736.9375 634.351562 737.363281 633.332031 C 737.785156 632.308594 738.183594 631.28125 738.554688 630.238281 C 738.925781 629.199219 739.273438 628.152344 739.59375 627.09375 C 739.914062 626.035156 740.207031 624.972656 740.476562 623.902344 C 740.746094 622.828125 740.988281 621.753906 741.203125 620.667969 C 741.417969 619.585938 741.605469 618.496094 741.769531 617.40625 C 741.929688 616.3125 742.066406 615.214844 742.175781 614.117188 C 742.28125 613.015625 742.363281 611.914062 742.417969 610.8125 C 742.472656 609.707031 742.5 608.605469 742.5 607.5 L 742.5 270 C 742.5 232.539062 712.125 202.5 675 202.5 L 405 202.5 Z M 337.5 135 "/></g></svg>