<svg xmlns="http://www.w3.org/2000/svg" xmlns:xlink="http://www.w3.org/1999/xlink" width="1080" zoomAndPan="magnify" viewBox="0 0 810 809.999993" height="1080" preserveAspectRatio="xMidYMid meet" version="1.2"><g id="9a8e0bfb8a"><path style=" stroke:none;fill-rule:nonzero;fill:#ffffff;fill-opacity:1;" d="M 599.0625 138.039062 L 513.675781 203.511719 L 544.386719 306.789062 L 455.625 245.699219 L 366.863281 306.789062 L 397.574219 203.511719 L 312.1875 138.039062 L 419.851562 135 L 455.625 33.75 L 491.398438 135 L 599.0625 138.039062 M 717.1875 371.25 L 661.835938 413.4375 L 681.75 480.261719 L 624.375 440.773438 L 567 480.261719 L 586.914062 413.4375 L 531.5625 371.25 L 601.085938 369.5625 L 624.375 303.75 L 647.664062 369.5625 L 717.1875 371.25 M 640.238281 538.3125 C 668.25 535.613281 698.289062 575.4375 680.398438 600.75 C 669.601562 615.9375 658.125 630.113281 643.949219 643.613281 C 511.988281 776.25 298.351562 776.25 166.726562 643.613281 C 34.761719 511.988281 34.761719 298.011719 166.726562 166.386719 C 180.226562 152.886719 194.398438 140.738281 209.585938 129.9375 C 234.898438 112.050781 274.726562 142.085938 272.023438 170.101562 C 262.914062 266.625 295.3125 366.863281 369.5625 440.773438 C 443.476562 515.023438 543.375 547.425781 640.238281 538.3125 M 584.886719 606.488281 C 489.375 601.085938 394.875 561.601562 321.636719 489.375 C 248.398438 415.460938 209.25 320.625 203.851562 225.449219 C 109.011719 331.425781 112.726562 494.101562 214.3125 596.023438 C 316.238281 697.613281 478.914062 701.324219 584.886719 606.488281 Z M 584.886719 606.488281 "/></g></svg>